HIERARCHY
ROOT Hips
{
  OFFSET -35.4901 99.2528 17.4586
  CHANNELS 6 Xposition Yposition Zposition Zrotation Xrotation Yrotation
  JOINT LeftUpLeg
  {
    OFFSET 8.64259 1.95398 -2.38835
    CHANNELS 3 Zrotation Xrotation Yrotation
    JOINT LeftLeg
    {
      OFFSET 43.7702 0 0
      CHANNELS 3 Zrotation Xrotation Yrotation
      JOINT LeftFoot
      {
        OFFSET 40.6238 0 0
        CHANNELS 3 Zrotation Xrotation Yrotation
        JOINT LeftToeBase
        {
          OFFSET 12.7242 0 0
          CHANNELS 3 Zrotation Xrotation Yrotation
          End Site
          {
            OFFSET 0 0 0
          }
        }
      }
    }
  }
  JOINT RightUpLeg
  {
    OFFSET -8.2249 1.95398 -2.59336
    CHANNELS 3 Zrotation Xrotation Yrotation
    JOINT RightLeg
    {
      OFFSET 43.5653 0 0
      CHANNELS 3 Zrotation Xrotation Yrotation
      JOINT RightFoot
      {
        OFFSET 40.6238 0 0
        CHANNELS 3 Zrotation Xrotation Yrotation
        JOINT RightToeBase
        {
          OFFSET 12.7242 0 0
          CHANNELS 3 Zrotation Xrotation Yrotation
          End Site
          {
            OFFSET 0 0 0
          }
        }
      }
    }
  }
  JOINT Spine
  {
    OFFSET 0.165834 0.87714 6.61349
    CHANNELS 3 Zrotation Xrotation Yrotation
    JOINT Spine1
    {
      OFFSET 7.38963 1.71661e-005 0
      CHANNELS 3 Zrotation Xrotation Yrotation
      JOINT Spine2
      {
        OFFSET 11.9445 1.14441e-005 0
        CHANNELS 3 Zrotation Xrotation Yrotation
        JOINT Spine3
        {
          OFFSET 14.7254 4.19617e-005 0
          CHANNELS 3 Zrotation Xrotation Yrotation
          JOINT Spine4
          {
            OFFSET 10.9679 0 0
            CHANNELS 3 Zrotation Xrotation Yrotation
            JOINT RightShoulder
            {
              OFFSET 2.46616 -1.6653 3.69651
              CHANNELS 3 Zrotation Xrotation Yrotation
              JOINT RightArm
              {
                OFFSET 13.0012 0 0
                CHANNELS 3 Zrotation Xrotation Yrotation
                JOINT RightForeArm
                {
                  OFFSET 28.7848 1.52588e-005 0
                  CHANNELS 3 Zrotation Xrotation Yrotation
                  JOINT RightHand
                  {
                    OFFSET 26.5688 1.52588e-005 0
                    CHANNELS 3 Zrotation Xrotation Yrotation
                    End Site
                    {
                      OFFSET 0 0 0
                    }
                  }
                }
              }
            }
            JOINT LeftShoulder
            {
              OFFSET 2.38034 -1.29275 -3.7523
              CHANNELS 3 Zrotation Xrotation Yrotation
              JOINT LeftArm
              {
                OFFSET 16.3182 6.10351e-005 0
                CHANNELS 3 Zrotation Xrotation Yrotation
                JOINT LeftForeArm
                {
                  OFFSET 27.0901 0 0
                  CHANNELS 3 Zrotation Xrotation Yrotation
                  JOINT LeftHand
                  {
                    OFFSET 24.5451 1.52588e-005 0
                    CHANNELS 3 Zrotation Xrotation Yrotation
                    End Site
                    {
                      OFFSET 0 0 0
                    }
                  }
                }
              }
            }
            JOINT Neck
            {
              OFFSET 5.0226 -0.0266342 0
              CHANNELS 3 Zrotation Xrotation Yrotation
              JOINT Head
              {
                OFFSET 6.69364 2.86102e-005 0
                CHANNELS 3 Zrotation Xrotation Yrotation
                End Site
                {
                  OFFSET 0 0 0
                }
              }
            }
          }
        }
      }
    }
  }
}
MOTION
Frames:	9
Frame Time:	0.0416667
256.07 93.6617 236.066 -90.0541 44.3617 -88.3792 -177.144 31.2368 85.126 -23.0077 8.59658 -3.9437 61.7253 0.939272 -0.882371 21.6398 4.0046 -5.28623 166.462 -28.6117 84.3713 -75.1774 -14.9216 -0.298955 62.4259 -1.68061 -2.09048 107.862 -2.37928 4.58107 2.90615 7.42806 -89.5828 12.0279 5.97476 0.180379 0.370713 5.97688 -0.0837271 -22.2661 5.64341 1.97347 -2.25345 5.64341 1.97347 91.2485 -16.3491 -110.267 37.2385 5.11615 2.38517 -81.3334 5.70191 -59.3273 1.56777 -4.55067 -50.148 -80.4532 -42.4319 92.7017 8.9661 11.1036 18.1157 65.1366 -42.812 -113.388 33.4034 -18.2815 -57.1458 13.2392 -11.0444 -5.18156 -8.36446 -9.26429 -3.74913 
240.995 91.2722 220.416 -92.4001 38.4613 -91.9342 -171.786 28.1096 78.7672 -48.5213 15.3403 -7.47472 75.9528 7.55037 5.81386 2.49204 0.782818 0.981244 161.836 -10.8157 75.2857 -111.938 -9.50959 -0.493434 65.9328 -4.34078 -4.8426 66.0175 -1.79504 5.22501 1.26256 7.87547 -88.8269 11.095 3.05775 2.03774 -0.573816 3.14444 1.90115 -23.1122 2.3042 2.86231 -3.09955 2.30418 2.86229 93.0533 -26.5779 -101.614 46.7413 -12.0844 11.6916 -56.0618 55.4864 -89.4011 27.7777 6.8572 22.6089 -85.3658 -54.0503 86.1978 -5.00509 12.0092 -1.38696 45.928 -17.0797 -103.899 24.5366 -15.6909 -63.4484 13.8459 -9.40978 -13.1924 -6.35286 -5.81489 1.48635 
227.492 89.5805 207.077 -92.1052 32.8975 -96.0694 -174.616 15.6166 75.8708 -54.0615 15.663 -4.61911 88.8321 13.6224 3.68251 11.7003 2.47109 -1.61844 176.022 19.4827 74.2372 -132.23 -21.59 0.217937 65.3693 -3.24954 -7.77686 9.89028 -1.00162 3.49918 -1.0302 7.73004 -88.1896 11.4078 -1.20509 3.72699 -0.268274 -1.04007 3.77631 -22.7734 -2.26876 3.19352 -2.76073 -2.26879 3.19351 94.6462 -27.0908 -98.1915 55.9844 -16.6747 29.8639 -89.3748 70.843 -79.967 51.7828 12.401 16.0077 -86.6068 -51.7243 84.0645 -11.4232 -0.0621227 -35.7795 31.2194 6.03198 -82.9112 20.1768 -7.57681 -49.9158 17.0472 -4.1445 -15.2835 -12.2608 0.121792 2.90239 
211.665 90.5297 189.916 -90.9692 36.3621 -90.2254 -172.541 -4.69595 91.3189 -39.1024 17.1732 -4.27331 89.8345 13.4389 0.576901 26.0436 4.01207 -6.48073 -173.027 40.2521 81.1544 -120.953 -11.8574 -0.200533 77.9757 -9.92584 -8.2955 8.95808 -1.94795 5.36241 -2.38058 7.49376 -89.2995 11.9418 -4.40218 1.88562 0.276907 -4.31491 2.0778 -22.319 -4.76501 0.472612 -2.30637 -4.765 0.47261 96.5867 -20.2776 -95.43 58.8392 -25.3157 46.0364 135.891 82.303 47.3254 67.3145 12.4486 17.0564 -87.0474 -37.3258 80.7802 -16.7012 -13.2895 -51.1275 157.087 11.2804 -125.089 11.7403 -17.6082 -85.7103 19.9508 4.69617 -14.3881 -16.9452 8.14128 7.46616 
194.076 94.3112 172.532 -91.6226 37.1178 -82.8701 -168.912 -28.9473 98.7796 -10.8194 20.8279 1.45798 58.1556 -0.313499 2.02976 30.0194 3.23401 -5.71053 -177.482 46.1024 92.0997 -86.4968 5.10409 -1.65707 79.0461 -9.54538 -3.1851 11.6165 -1.73428 4.9587 -3.8573 7.63178 -90.5668 11.6239 -7.93846 -0.305953 -0.0226731 -7.94419 0.0459901 -22.7369 -7.47739 -2.69109 -2.72426 -7.47738 -2.69109 97.7661 -8.85683 -95.7937 60.8946 -25.2546 55.6905 -33.9938 -14.8094 -41.3588 -55.1619 20.6103 -48.8833 -84.4244 -19.1483 81.5259 -2.2498 -11.3982 -40.6086 147.764 16.9709 -129.324 -5.9112 2.92132 -85.165 26.1912 11.7658 -16.9649 -28.0161 13.8738 16.7561 
177.013 95.9492 155.707 -88.3511 37.8768 -81.9543 -166.421 -33.0576 102.532 -17.5056 8.86625 2.70495 59.6679 0.271177 2.48891 17.1044 -1.59661 3.22177 -178.796 39.7558 94.5281 -37.9437 -10.9027 -2.01291 70.1653 -6.20808 -3.10478 15.029 -1.29098 4.05369 -4.13489 7.64582 -91.4017 11.526 -8.88101 -1.88291 -0.115191 -8.9552 -1.4872 -22.8432 -7.90255 -4.47952 -2.8305 -7.90254 -4.47953 98.1725 -4.13554 -96.1353 48.2509 -14.4447 57.1151 -17.3468 -21.8468 -46.6078 -9.26111 -1.61119 -26.495 -83.5602 -2.39349 78.1879 10.7513 4.39928 -28.7117 102.519 27.3044 -101.866 -25.724 12.8177 -61.452 28.6383 12.4202 -22.9206 -30.9925 14.604 25.2716 
160.321 94.5752 139.273 -93.2949 39.0883 -82.4579 -164.127 -34.1126 101.53 -43.4889 0.905059 0.219364 61.1439 0.974392 4.03833 24.3896 0.503155 -0.290071 179.214 24.1421 92.7451 -5.22548 -21.1961 -1.25943 60.0284 -1.93963 -1.77211 19.6741 -0.0929356 1.31016 -3.95396 7.61659 -90.9674 11.6292 -8.31839 -1.06481 -0.015025 -8.35713 -0.695096 -22.7349 -7.61177 -3.52946 -2.72225 -7.61176 -3.52946 97.576 -6.90237 -97.7528 52.3849 -7.62857 59.7577 -34.9889 -31.2784 -55.0775 -44.9469 1.5431 -12.1867 -82.9674 -6.22549 80.3364 12.2428 10.6264 -31.3329 101.415 15.0816 -95.9468 -40.7816 15.7125 -47.9312 22.9089 14.9782 -14.4319 -26.0736 15.7143 18.0412 
145.705 91.1643 123.755 -98.385 42.5086 -80.081 -158.035 -20.2472 103.563 -83.7267 10.2478 2.86675 62.389 2.01253 5.27636 21.2083 3.35878 -4.29032 178.045 29.789 94.3249 -37.7437 -20.9305 -1.39318 63.7621 -2.43619 -3.5493 14.1397 -1.13529 3.65183 -3.00294 7.58824 -90.8992 11.6709 -6.39417 -1.11238 0.0152763 -6.43689 -0.82875 -22.6225 -5.76366 -2.9885 -2.6098 -5.76368 -2.9885 95.0065 -20.5598 -99.1998 40.1966 4.87748 49.4748 -34.4232 -28.9393 -59.3638 -41.1432 1.61865 -13.8154 -85.6773 -28.1377 81.1662 8.50631 7.5649 -21.8456 113.686 -5.46265 -87.8554 -50.2709 17.7456 -47.7145 13.2262 16.1491 -1.27183 -14.8195 14.9639 10.8576 
133.264 88.8242 110.057 -101.755 47.3701 -67.4299 -156.206 8.18576 109.712 -117.984 11.1517 8.35659 63.7301 1.9295 7.99303 16.5652 5.88778 -6.90887 177.297 23.5272 105.023 -52.5363 -23.4094 1.68799 79.38 -10.9084 -7.61931 17.9561 -1.80983 5.03252 -1.45909 8.30704 -92.2283 10.1733 -3.92351 -4.09301 -1.49762 -4.09973 -3.91651 -24.0041 -2.51383 -5.08112 -3.99145 -2.51384 -5.08113 93.4501 -31.8227 -99.3603 33.7006 5.83012 13.3392 -30.4474 -25.051 -60.6221 -39.6569 0.961609 -11.2476 -84.4422 -49.6132 87.0351 -3.47207 5.16032 -6.06057 74.9461 -25.5259 -91.3329 4.32124 -0.223781 -6.64824 20.1278 15.7449 5.01243 -14.9228 13.0805 5.91722 
